<?xml version="1.0" encoding="UTF-8"?>
<svg width="480px" height="480px" viewBox="0 0 480 480" version="1.1" xmlns="http://www.w3.org/2000/svg" xmlns:xlink="http://www.w3.org/1999/xlink">
    <!-- Generator: Sketch 64 (93537) - https://sketch.com -->
    <title>1</title>
    <desc>Created with Sketch.</desc>
    <g id="Page-1" stroke="none" stroke-width="1" fill="none" fill-rule="evenodd">
        <g id="1" fill="#1A2F33" fill-rule="nonzero">
            <path d="M8.24,473.944 C9.13167272,477.503448 12.3305649,480 16,480 L352,480 C355.669435,480 358.868327,477.503448 359.76,473.944 L367.76,441.944 C368.358781,439.553741 367.822634,437.020909 366.306676,435.078295 C364.790718,433.135681 362.464118,432.000065 360,432 L351.592,432 C347.850097,354.631245 291.723782,289.836058 215.68,275.096 C215.776,274.056 216,273.04 216,272 C216,254.326888 201.673112,240 184,240 C166.326888,240 152,254.326888 152,272 C152,273.04 152.224,274.056 152.32,275.096 C76.2762185,289.836058 20.1499025,354.631245 16.408,432 L8,432 C5.53588217,432.000065 3.20928166,433.135681 1.69332391,435.078295 C0.17736616,437.020909 -0.358780633,439.553741 0.24,441.944 L8.24,473.944 Z M345.752,464 L22.248,464 L18.248,448 L349.752,448 L345.752,464 Z M168,272 C168,263.163444 175.163444,256 184,256 C192.836556,256 200,263.163444 200,272 C200,272.272 199.928,272.536 199.92,272.8 C194.672,272.304 189.376,272 184,272 C178.624,272 173.328,272.312 168.08,272.8 C168.072,272.536 168,272.272 168,272 Z M184,288 C264.750898,288.133007 331.313882,351.362398 335.592,432 L32.408,432 C36.6861176,351.362398 103.249102,288.133007 184,288 L184,288 Z" id="Shape"></path>
            <path d="M66.2,372 L80.048,380 C107.049158,333.352819 161.79444,310.374448 214,323.776 L218,308.288 C158.838118,293.084475 96.7894455,319.126932 66.2,372 L66.2,372 Z" id="Path"></path>
            <path d="M52.288,406 L67.776,410 C69.0905784,404.8962 70.7422028,399.885203 72.72,395 L57.888,389 C55.6509567,394.537878 53.7802593,400.216781 52.288,406 L52.288,406 Z" id="Path"></path>
            <path d="M472,40 L448,40 L448,8 C447.999834,5.66320268 446.977958,3.44329506 445.202861,1.92354118 C443.427764,0.403787297 441.076921,-0.263866794 438.768,0.096 L182.768,40.096 L182.768,40.248 C178.904989,40.8020138 176.02776,44.0975631 176,48 L176,224 L192,224 L192,56 L464,56 L464,464 L376,464 L376,480 L472,480 C476.418278,480 480,476.418278 480,472 L480,48 C480,43.581722 476.418278,40 472,40 L472,40 Z M432,40 L287.016,40 L432,17.344 L432,40 Z" id="Shape"></path>
            <path d="M254.464,142.224 L231.832,119.6 L220.52,130.912 L243.152,153.536 C256.591159,166.97505 277.631308,169.101803 293.488,158.624 L316.688,181.824 L243.152,255.36 L254.464,266.672 L328,193.136 L401.536,266.672 L412.848,255.36 L339.312,181.824 L351.2,169.936 C367.060624,180.397834 388.089793,178.27219 401.536,164.848 L412.848,153.536 C423.246263,143.493021 427.416504,128.620884 423.755886,114.635707 C420.095269,100.65053 409.17347,89.7287314 395.188293,86.0681137 C381.203116,82.4074961 366.330979,86.5777366 356.288,96.976 L344.976,108.288 C331.53695,121.727159 329.410197,142.767308 339.888,158.624 L328,170.512 L304.8,147.312 C315.277803,131.455308 313.15105,110.415159 299.712,96.976 L277.088,74.344 L265.776,85.656 L288.4,108.288 C295.516863,115.475992 297.363013,126.354521 293.016,135.488 L254.464,96.936 L243.152,108.248 L281.704,146.8 C272.568186,151.176226 261.668383,149.345187 254.464,142.224 L254.464,142.224 Z M356.288,119.6 L367.6,108.288 C377.017093,99.192667 391.986035,99.322743 401.243646,108.580354 C410.501257,117.837965 410.631333,132.806907 401.536,142.224 L390.224,153.536 C384.198213,159.774958 375.274931,162.277102 366.883824,160.080732 C358.492718,157.884361 351.939639,151.331282 349.743268,142.940176 C347.546898,134.549069 350.049042,125.625787 356.288,119.6 L356.288,119.6 Z" id="Shape"></path>
            <polygon id="Path" points="424 288 440 288 440 304 424 304"></polygon>
            <polygon id="Path" points="424 320 440 320 440 336 424 336"></polygon>
            <polygon id="Path" points="424 352 440 352 440 368 424 368"></polygon>
            <polygon id="Path" points="304 288 408 288 408 304 304 304"></polygon>
            <polygon id="Path" points="336 320 408 320 408 336 336 336"></polygon>
            <polygon id="Path" points="360 352 408 352 408 368 360 368"></polygon>
            <polygon id="Path" points="144 64 160 64 160 208 144 208"></polygon>
        </g>
    </g>
</svg>