<?xml version="1.0" encoding="UTF-8"?>
<svg width="464px" height="448px" viewBox="0 0 464 448" version="1.1" xmlns="http://www.w3.org/2000/svg" xmlns:xlink="http://www.w3.org/1999/xlink">
    <!-- Generator: Sketch 64 (93537) - https://sketch.com -->
    <title>2</title>
    <desc>Created with Sketch.</desc>
    <g id="Page-1" stroke="none" stroke-width="1" fill="none" fill-rule="evenodd">
        <g id="2" fill="#1A2F33" fill-rule="nonzero">
            <path d="M42.544,329.912 C35.6201852,317.027188 31.9975344,302.627289 31.9999995,288 L31.9999995,200 L15.9999995,200 L15.9999995,288 C15.998253,305.278978 20.283604,322.28844 28.472,337.504 L42.544,329.912 Z" id="Path"></path>
            <path d="M39.544,354.032 C43.0654607,358.336358 46.9286763,362.349393 51.096,366.032 L61.672,354.032 C58.1544588,350.917764 54.8932642,347.52548 51.92,343.888 L39.544,354.032 Z" id="Path"></path>
            <path d="M16.2,122.456 C18.912,124 23.448,126.584 24.096,127.256 C23.4133633,130.566119 22.3055086,133.774058 20.8,136.8 C17.36,144.8 13.464,153.8 18.744,161.184 C22.4873663,165.476322 27.0445454,168.983936 32.152,171.504 C42.0067976,177.199237 48.0546838,187.738007 48,199.12 L48,288 C47.9543575,315.475947 63.5843162,340.571455 88.264,352.648 C77.0809348,372.450242 77.261362,396.703029 88.7378083,416.336697 C100.214255,435.970365 121.258211,448.027816 144,448.000048 L224,448.000048 C243.102155,448.000048 261.203955,439.460276 273.344,424.712 C301.778298,449.206473 341.878943,454.885433 375.99643,439.249399 C410.113917,423.613364 431.991425,389.529834 432,352 C432.01327,333.156522 426.44585,314.731145 416,299.048 L416,232 C432.317708,232.031841 447.012048,222.129257 453.107817,206.99287 C459.203586,191.856483 455.473428,174.533933 443.688,163.248 C450.207765,145.178241 449.222469,125.25048 440.952,107.912 L443.904,104.936 C453.209366,95.5751011 453.209366,80.4568989 443.904,71.096 C434.418452,61.9512901 419.397548,61.9512901 409.912,71.096 L406.96,74.04 C392.319762,67.1341469 375.794054,65.309844 360,68.856 L360,64 C360,59.581722 356.418278,56 352,56 L344,56 L344,16 L328,16 L328,56.8 C322.178754,58.0342067 316.710155,60.5634337 312,64.2 L312,0 L296,0 L296,48.208 C291.289845,44.5714337 285.821246,42.0422067 280,40.808 L280,16 L264,16 L264,40 L256,40 C251.581722,40 248,43.581722 248,48 L248,64 C248.029415,72.6837542 250.913547,81.1168891 256.208,88 L256,88 C251.581722,88 248,91.581722 248,96 L248,112 C248.026449,134.080425 265.919575,151.973551 288,152 L223.864,152 C223.210556,146.703607 221.643323,141.560703 219.232,136.8 C217.944,133.816 215.792,128.8 215.656,127.896 C218.116831,125.731988 220.84917,123.897879 223.784,122.44 C231.384,118.08 240,113.16 240,104 C240,89.208 228.08,79.496 217.6,70.912 C212.794808,67.34929 208.426036,63.2329244 204.584,58.648 C201.425321,53.4230338 198.984718,47.7964624 197.328,41.92 C193.096,29.528 188.28,15.52 175.464,9.528 C164.264,4.36 152.064,8.832 140.264,13.16 C133.830163,15.9708316 126.989917,17.7396279 120,18.4 C113.026415,17.7346195 106.202755,15.9659226 99.784,13.16 C87.992,8.832 75.784,4.36 64.584,9.536 C51.784,15.488 46.984,29.536 42.744,41.92 C41.0872818,47.7964624 38.6466791,53.4230338 35.488,58.648 C31.6459638,63.2329244 27.2771922,67.34929 22.472,70.912 C11.92,79.496 0,89.208 0,104 C0,113.192 8.608,118.12 16.2,122.456 Z M224,432 L144,432 C117.490332,432 96,410.509668 96,384 C96,357.490332 117.490332,336 144,336 L144,376 L160,376 L160,336 L176,336 L176,392 L192,392 L192,336 L208,336 L208,376 L224,376 L224,336 C250.509668,336 272,357.490332 272,384 C272,410.509668 250.509668,432 224,432 L224,432 Z M168,232 L184,232 L184,216 L152,216 C138.745166,216 128,205.254834 128,192 C128,178.745166 138.745166,168 152,168 L192.2,168 C182.967213,180.054661 181.397874,196.31236 188.154428,209.910456 C194.910982,223.508552 208.816021,232.077419 224,232 L224,320 L168,320 L168,232 Z M336,432 C315.996177,431.935064 296.73677,424.406464 281.992,410.888 C295.476661,382.085721 285.641187,347.750353 258.952,330.456 C267.920195,298.805166 295.277142,275.819117 328,272.44 L328,301.656 C324.336161,299.327668 321.293967,296.1427 319.136,292.376 L304.84,299.576 C310.877766,311.420942 322.729727,319.189377 336,320 C349.284889,319.203169 361.155102,311.432745 367.2,299.576 L352.904,292.376 C350.734764,296.147346 347.678452,299.332721 344,301.656 L344,272.408 C386.38208,276.704675 417.963408,313.459327 415.830675,356.005227 C413.697941,398.551126 378.599305,431.963257 336,432 Z M404.424,90.744 C407.565839,92.5912158 411.559079,92.0813705 414.136,89.504 L421.296,82.344 C424.475848,79.6323937 429.207045,79.8251522 432.155767,82.7864488 C435.104489,85.7477454 435.277113,90.4797199 432.552,93.648 L425.432,100.848 C422.86777,103.434695 422.374492,107.426962 424.232,110.56 C432.053077,123.841979 434.033561,139.766924 429.704,154.56 C425.324206,152.899859 420.683756,152.032992 416,152 L351.792,152 C357.086453,145.116889 359.970585,136.683754 360,128 L360,112 C360,107.581722 356.418278,104 352,104 L351.792,104 C355.883656,98.597638 358.517326,92.2338544 359.44,85.52 C374.50602,80.9005431 390.817579,82.7948075 404.424,90.744 Z M312,144 C312,130.745166 322.745166,120 336,120 L344,120 L344,128 C344,141.254834 333.254834,152 320,152 L312,152 L312,144 Z M336,72 L344,72 L344,80 C344,93.254834 333.254834,104 320,104 L312,104 L312,96 C312,82.745166 322.745166,72 336,72 Z M264,56 L272,56 C285.254834,56 296,66.745166 296,80 L296,88 L288,88 C274.745166,88 264,77.254834 264,64 L264,56 Z M264,112 L264,104 L272,104 C285.254834,104 296,114.745166 296,128 L296,136 L288,136 C274.745166,136 264,125.254834 264,112 Z M240,168 L416,168 C429.254834,168 440,178.745166 440,192 C440,205.254834 429.254834,216 416,216 L408,216 C403.581722,216 400,219.581722 400,224 L400,280.648 C384.83381,266.949534 365.674277,258.475934 345.336,256.472 C348.532118,241.40539 357.814425,228.33025 370.984,220.344 L380.12,214.856 L371.88,201.144 L362.752,206.624 C344.823162,217.482809 332.528098,235.627378 329.088,256.304 C289.792778,259.246515 256.242882,285.805134 244.36,323.376 C242.928,322.896 241.472,322.488 240,322.104 L240,224 C240,219.581722 236.418278,216 232,216 L224,216 C210.745166,216 200,205.254834 200,192 C200,178.745166 210.745166,168 224,168 L240,168 Z M32.544,83.312 C38.4424612,78.9138633 43.7665978,73.7939844 48.392,68.072 C52.5389458,61.5764432 55.7214347,54.5135276 57.84,47.104 C61.208,37.28 64.68,27.104 71.264,24.064 C76.488,21.664 85.528,24.976 94.28,28.176 C102.429154,31.7216484 111.13137,33.8275035 120,34.4 C128.86863,33.8275035 137.570846,31.7216484 145.72,28.176 C154.472,24.976 163.496,21.664 168.712,24.056 C175.32,27.128 178.792,37.28 182.16,47.104 C184.278565,54.5135276 187.461054,61.5764432 191.608,68.072 C196.233402,73.7939844 201.557539,78.9138633 207.456,83.312 C215.64,89.992 223.4,96.312 223.968,103.192 C221.453507,105.251078 218.729147,107.039609 215.84,108.528 C209.44,112.192 202.8,115.976 200.64,122.408 C199.39532,129.556556 200.773096,136.914162 204.52,143.128 C205.884278,145.97887 206.984865,148.94858 207.808,152 L160,152 C160,138.745166 170.745166,128 184,128 L184,112 C175.316246,112.029415 166.883111,114.913547 160,120.208 L160,112 C160,98.745166 170.745166,88 184,88 L184,72 C161.919575,72.0264489 144.026449,89.9195748 144,112 L144,152.8 C138.178754,154.034207 132.710155,156.563434 128,160.2 L128,104 L112,104 L112,280 L128,280 L128,223.792 C134.883111,229.086453 143.316246,231.970585 152,232 L152,320 L144,320 C126.718691,320.000898 110.177163,327.013005 98.16,339.432 C77.4602435,330.725068 63.9982517,310.456415 64,288 L64,199.12 C64.0388162,181.973733 54.8772674,166.124254 40,157.6 C37.1802224,156.131003 34.5365825,154.346211 32.12,152.28 C32.9225313,149.135167 34.0346282,146.07757 35.44,143.152 C39.1695172,136.969794 40.5522676,129.652858 39.336,122.536 C36.1245921,116.193678 30.725015,111.228909 24.136,108.56 C21.2388633,107.071585 18.5110317,105.274488 16,103.2 C16.584,96.328 24.344,90 32.544,83.312 Z" id="Shape"></path>
            <path d="M80,152 L80,264 L96,264 L96,112 C95.9735511,89.9195748 78.0804252,72.0264489 56,72 L56,88 C69.254834,88 80,98.745166 80,112 L80,120.208 C73.1168891,114.913547 64.6837542,112.029415 56,112 L56,128 C69.254834,128 80,138.745166 80,152 Z" id="Path"></path>
            <rect id="Rectangle" x="240" y="184" width="16" height="16"></rect>
            <rect id="Rectangle" x="288" y="232" width="16" height="16"></rect>
            <rect id="Rectangle" x="320" y="184" width="16" height="16"></rect>
            <rect id="Rectangle" x="400" y="184" width="16" height="16"></rect>
            <path d="M423.024,445.864 C466.790798,405.274526 476.706743,339.828625 446.928,288.096 L433.072,296.096 C459.115135,341.362899 450.438077,398.618211 412.152,434.136 L423.024,445.864 Z" id="Path"></path>
        </g>
    </g>
</svg>