<?xml version="1.0" encoding="UTF-8"?>
<svg width="481px" height="479px" viewBox="0 0 481 479" version="1.1" xmlns="http://www.w3.org/2000/svg" xmlns:xlink="http://www.w3.org/1999/xlink">
    <!-- Generator: Sketch 64 (93537) - https://sketch.com -->
    <title>3</title>
    <desc>Created with Sketch.</desc>
    <g id="Page-1" stroke="none" stroke-width="1" fill="none" fill-rule="evenodd">
        <g id="3" fill="#1A2F33" fill-rule="nonzero">
            <path d="M456.104,324.936 C432.624852,341.290012 402.789452,345.56281 375.664,336.456 C373.204401,335.579846 370.472003,335.959097 368.344,337.472 L332.344,363 L341.608,376.048 L374.272,352.848 C405.189794,361.87927 438.531431,356.492296 465.032,338.184 C469.746734,334.998644 474.215326,331.463348 478.4,327.608 L467.552,315.848 C463.971472,319.162663 460.144476,322.200726 456.104,324.936 L456.104,324.936 Z" id="Path"></path>
            <path d="M375.544,205.544 C352.185125,220.46865 339.338571,247.371649 342.416,274.92 L241,339.928 L139.568,274.96 C142.712702,247.396954 129.834432,220.459776 106.408,205.6 C91.1679606,195.095692 72.6358635,190.474037 54.248,192.592 C36.6868089,194.311112 20.8078376,203.774257 10.9395312,218.401878 C1.07122475,233.029499 -1.75766071,251.29669 3.224,268.224 C8.15292279,286.0576 19.3835068,301.497877 34.832,311.68 C57.4033445,327.860154 87.2409238,329.703246 111.632,316.424 L190.36,372.32 L115.44,420.36 C108.285275,424.906107 103.276329,432.155658 101.555082,440.455928 C99.8338343,448.756198 101.546994,457.399728 106.304,464.416 C111.042224,471.416578 118.402345,476.211631 126.720528,477.717184 C135.038711,479.222738 143.612609,477.311671 150.504,472.416 L241,408.24 L331.496,472.464 C340.796398,479.267654 353.073619,480.438246 363.492163,475.514727 C373.910708,470.591209 380.800973,460.362588 381.449163,448.857504 C382.097353,437.35242 376.399593,426.414597 366.6,420.352 L291.592,372.352 L370.376,316.432 C394.764058,329.715911 424.601509,327.879043 447.176,311.704 C480.056,289.512 490.792,247.64 471.088,218.36 C451.384,189.08 408.496,183.352 375.544,205.544 L375.544,205.544 Z M141.24,459.4 C134.131375,464.184938 124.503857,462.427703 119.544,455.44 C117.211557,451.999235 116.372431,447.760366 117.218065,443.690469 C118.0637,439.620573 120.521957,436.066826 124.032,433.84 L204.424,382.288 L227.136,398.4 L141.24,459.4 Z M364.76,443.696 C366.042599,449.90754 363.396048,456.271603 358.08713,459.742004 C352.778212,463.212404 345.886999,463.083107 340.712,459.416 L116.4,300.216 C113.595221,298.227098 109.833272,298.252864 107.056,300.28 C87.6466968,312.94705 62.4060463,312.203552 43.776,298.416 C31.5367689,290.387802 22.6233373,278.194364 18.688,264.096 C14.8741585,251.622905 16.8999471,238.094411 24.2000838,227.285549 C31.5002205,216.476687 43.293099,209.544733 56.288,208.424 C70.8323317,206.79158 85.4753831,210.486449 97.504,218.824 C117.251571,230.94442 127.378799,254.0673 122.896,276.8 C122.052679,280.136858 123.438113,283.639105 126.336,285.496 L357.968,433.832 C361.478591,436.060176 363.930801,439.621513 364.76,443.696 L364.76,443.696 Z M438.2,298.4 C419.564065,312.18401 394.32048,312.921118 374.912,300.248 C372.134728,298.220864 368.372779,298.195098 365.568,300.184 L277.064,363.016 L255.848,349.416 L355.64,285.416 C358.531255,283.561254 359.915754,280.067809 359.08,276.736 C354.687605,254.005564 364.808121,230.927094 384.504,218.76 C410.104,201.504 443.016,205.312 457.808,227.224 C472.6,249.136 463.792,281.144 438.2,298.4 L438.2,298.4 Z" id="Shape"></path>
            <path d="M88.416,14.664 L79.56,1.336 C39.7990318,27.6821075 23.0566561,77.6981823 38.944,122.672 L54.024,117.328 C40.5898272,79.2672128 54.770259,36.9468686 88.424,14.664 L88.416,14.664 Z" id="Path"></path>
            <path d="M71,146.144 C67.1479793,141.774236 63.7342728,137.036847 60.808,132 L46.96,140 C50.4150505,145.954853 54.4478239,151.555183 59,156.72 L71,146.144 Z" id="Path"></path>
            <path d="M328.84,273.6 L351.616,159.728 C390.092838,156.380029 419.074468,123.269639 417.298514,84.6882706 C415.52256,46.1069025 383.621698,15.7990181 345,16 C328.823388,15.9427137 313.110792,21.4031793 300.456,31.48 C287.07296,11.7886788 264.808694,0.000768949326 241,0.000768949326 C217.191306,0.000768949326 194.92704,11.7886788 181.544,31.48 C168.889208,21.4031793 153.176612,15.9427137 137,16 C98.5205223,15.9964473 66.8393289,46.2497518 65.0695453,84.6885094 C63.2997618,123.127267 92.0669909,156.163716 130.384,159.696 L153.16,273.6 L168.84,270.464 L164.36,248 L317.64,248 L313.16,270.4 L328.84,273.6 Z M290.224,232 L296.92,185.136 L281.08,182.864 L274.064,232 L249,232 L249,144 L233,144 L233,232 L207.936,232 L200.92,182.864 L185.08,185.136 L191.776,232 L161.16,232 L144.84,150.4 C144.07957,146.67467 140.802149,143.999224 137,144 C106.072054,144 81,118.927946 81,88 C81,57.072054 106.072054,32 137,32 C152.411575,31.9605003 167.144299,38.3370482 177.664,49.6 C179.468936,51.5086898 182.095913,52.4096287 184.692358,52.0104214 C187.288802,51.611214 189.523803,49.9627386 190.672,47.6 C199.99768,28.2866406 219.552992,16.01346 241,16.01346 C262.447008,16.01346 282.00232,28.2866406 291.328,47.6 C292.476197,49.9627386 294.711198,51.611214 297.307642,52.0104214 C299.904087,52.4096287 302.531064,51.5086898 304.336,49.6 C314.855701,38.3370482 329.588425,31.9605003 345,32 C375.927946,32 401,57.072054 401,88 C401,118.927946 375.927946,144 345,144 C341.197851,143.999224 337.92043,146.67467 337.16,150.4 L320.84,232 L290.224,232 Z" id="Shape"></path>
        </g>
    </g>
</svg>